<svg t="1713866509398" class="icon" viewBox="0 0 1024 1024" version="1.1" xmlns="http://www.w3.org/2000/svg" p-id="6408" width="200" height="200"><path d="M512 64c-247.4 0-448 200.6-448 448 0 247.4 200.6 448 448 448s448-200.6 448-448C960 264.6 759.4 64 512 64L512 64zM118.3 512c0-217.4 176.3-393.7 393.7-393.7 94.3 0 180.9 33.2 248.7 88.5 10.3 8.4 20.1 17.3 29.5 26.6L220.8 777c-1-1.1-2-2.2-2.9-3.3C155.9 704.2 118.3 612.5 118.3 512L118.3 512zM512 905.7c-94.8 0-181.8-33.5-249.7-89.3l565.4-539.7c49 65.6 78 147.1 78 235.3C905.7 729.4 729.4 905.7 512 905.7L512 905.7zM512 905.7" p-id="6409"></path></svg>